<?xml version="1.0" encoding="iso-8859-1"?>
<!-- Uploaded to: SVG Repo, www.svgrepo.com, Generator: SVG Repo Mixer Tools -->
<!DOCTYPE svg PUBLIC "-//W3C//DTD SVG 1.1//EN" "http://www.w3.org/Graphics/SVG/1.1/DTD/svg11.dtd">
<svg fill="red" version="1.1" id="Capa_1" xmlns="http://www.w3.org/2000/svg" xmlns:xlink="http://www.w3.org/1999/xlink" 
	 width="800px" height="800px" viewBox="0 0 399.362 399.362"
	 xml:space="preserve">
<g>
	<path d="M393.917,135.248C369.437,30.596,258.665-7.96,163.193,9.788C72.618,26.923-6.331,99.14,0.401,195.835
		c6.12,82.008,92.412,203.796,184.824,197.676c7.956,0,16.523-1.224,22.644-1.836c4.896-0.611,12.24-0.611,20.196-1.224
		c43.451-1.224,89.352-30.601,116.892-59.364C392.081,281.515,409.217,200.732,393.917,135.248z M201.749,369.032
		c-0.611,0-1.224,0.611-1.835,0.611c-1.224-0.611-2.448-0.611-3.672-1.224c-3.672-1.836-6.732,0-8.568,2.448
		c-0.612-0.612-0.612-0.612-1.224-0.612c0.612-0.612,1.836-1.224,2.448-2.448c4.896,0,9.792,0,14.688,0c0.612,0,0.612,0,1.224,0
		C204.197,368.419,202.973,368.419,201.749,369.032z M307.625,216.032c0,4.284-0.612,11.628-0.612,18.359
		c-29.376-2.447-60.588,0-88.739,0.612c-41.004,0.612-82.62,0-123.624,4.896c-1.224,0-1.836-0.612-3.06-0.612
		c0.612-1.224,0-1.836,0-2.448c0,0,0,0,0-0.612c0.612-3.06,0-6.731,0-9.18c0-9.18,0.612-18.36,1.224-26.928
		c0.612-10.404,3.672-23.256,4.284-34.884c9.792,2.448,22.644,0.612,30.6,1.224c26.928,0,54.468-0.612,81.395-1.224
		c27.54-0.612,55.08-1.224,82.62-1.836c5.508,0,13.464,0.612,20.809,0.612C311.297,180.536,308.237,198.284,307.625,216.032z"/>
</g>
</svg>